<svg width="48" height="41" viewBox="0 0 48 41" fill="none" xmlns="http://www.w3.org/2000/svg">
<path d="M30.704 7.3C29.7013 7.3 28.8417 6.943 28.125 6.229C27.4083 5.51497 27.05 4.65663 27.05 3.654C27.05 2.65133 27.407 1.79167 28.121 1.075C28.835 0.358333 29.6934 0 30.696 0C31.6987 0 32.5583 0.357 33.275 1.071C33.9917 1.78503 34.35 2.64337 34.35 3.646C34.35 4.64867 33.993 5.50833 33.279 6.225C32.565 6.94167 31.7066 7.3 30.704 7.3ZM20.85 17.6L25.3 22.35V34.7H22.3V24.7L15.5 18.75C15.2 18.4833 14.95 18.125 14.75 17.675C14.55 17.225 14.45 16.7667 14.45 16.3C14.45 15.8333 14.5583 15.3833 14.775 14.95C14.9917 14.5167 15.2333 14.1667 15.5 13.9L21.45 7.95C21.7167 7.68333 22.0917 7.44167 22.575 7.225C23.0583 7.00833 23.5667 6.9 24.1 6.9C24.6333 6.9 25.1417 7.00833 25.625 7.225C26.1083 7.44167 26.4833 7.68333 26.75 7.95L30.65 11.85C31.55 12.75 32.6256 13.525 33.8769 14.175C35.1282 14.825 36.5359 15.15 38.1 15.15V18.15C36.1145 18.15 34.3182 17.775 32.7109 17.025C31.1036 16.275 29.6667 15.2667 28.4 14L26.4 12L20.85 17.6ZM9.7544 21.5C12.5181 21.5 14.8333 22.4348 16.7 24.3044C18.5667 26.174 19.5 28.4906 19.5 31.2544C19.5 34.0181 18.5652 36.3333 16.6956 38.2C14.826 40.0667 12.5094 41 9.7456 41C6.98187 41 4.66667 40.0652 2.8 38.1956C0.933333 36.326 0 34.0094 0 31.2456C0 28.4819 0.9348 26.1667 2.8044 24.3C4.67397 22.4333 6.99063 21.5 9.7544 21.5ZM9.75 38.55C11.8167 38.55 13.55 37.85 14.95 36.45C16.35 35.05 17.05 33.3167 17.05 31.25C17.05 29.1833 16.35 27.45 14.95 26.05C13.55 24.65 11.8167 23.95 9.75 23.95C7.68333 23.95 5.95 24.65 4.55 26.05C3.15 27.45 2.45 29.1833 2.45 31.25C2.45 33.3167 3.15 35.05 4.55 36.45C5.95 37.85 7.68333 38.55 9.75 38.55ZM37.7544 21.5C40.5181 21.5 42.8333 22.4348 44.7 24.3044C46.5667 26.174 47.5 28.4906 47.5 31.2544C47.5 34.0181 46.5652 36.3333 44.6956 38.2C42.826 40.0667 40.5094 41 37.7456 41C34.9819 41 32.6667 40.0652 30.8 38.1956C28.9333 36.326 28 34.0094 28 31.2456C28 28.4819 28.9348 26.1667 30.8044 24.3C32.674 22.4333 34.9906 21.5 37.7544 21.5ZM37.75 38.55C39.8167 38.55 41.55 37.85 42.95 36.45C44.35 35.05 45.05 33.3167 45.05 31.25C45.05 29.1833 44.35 27.45 42.95 26.05C41.55 24.65 39.8167 23.95 37.75 23.95C35.6833 23.95 33.95 24.65 32.55 26.05C31.15 27.45 30.45 29.1833 30.45 31.25C30.45 33.3167 31.15 35.05 32.55 36.45C33.95 37.85 35.6833 38.55 37.75 38.55Z" fill="#E0003E"/>
</svg>
