<svg width="40" height="37" viewBox="0 0 40 37" fill="none" xmlns="http://www.w3.org/2000/svg">
<path d="M0 36.05V32.85C1.2 32.75 2.15833 32.4 2.875 31.8C3.59167 31.2 4.71667 30.9 6.25 30.9C7.78333 30.9 9.03333 31.2583 10 31.975C10.9667 32.6917 12.0833 33.05 13.35 33.05C14.6167 33.05 15.6583 32.6917 16.475 31.975C17.2917 31.2583 18.4667 30.9 20 30.9C21.5333 30.9 22.7833 31.2583 23.75 31.975C24.7167 32.6917 25.8333 33.05 27.1 33.05C28.3667 33.05 29.4167 32.6917 30.25 31.975C31.0833 31.2583 32.2667 30.9 33.8 30.9C35.3333 30.9 36.45 31.2 37.15 31.8C37.85 32.4 38.8 32.75 40 32.85V36.05C38.8333 35.95 37.825 35.575 36.975 34.925C36.125 34.275 35.0667 33.95 33.8 33.95C32.5333 33.95 31.45 34.3 30.55 35C29.65 35.7 28.5 36.05 27.1 36.05C25.7 36.05 24.4833 35.7 23.45 35C22.4167 34.3 21.2667 33.95 20 33.95C18.7333 33.95 17.625 34.3 16.675 35C15.725 35.7 14.55 36.05 13.15 36.05C11.75 36.05 10.5667 35.7 9.6 35C8.63333 34.3 7.51667 33.95 6.25 33.95C4.98333 33.95 3.91667 34.275 3.05 34.925C2.18333 35.575 1.16667 35.95 0 36.05ZM0 26.65V23.65C1.2 23.55 2.15833 23.2083 2.875 22.625C3.59167 22.0417 4.71667 21.75 6.25 21.75C7.78333 21.75 9 22.0667 9.9 22.7C10.8 23.3333 11.8833 23.65 13.15 23.65C14.4167 23.65 15.4917 23.3333 16.375 22.7C17.2583 22.0667 18.4667 21.75 20 21.75C21.5333 21.75 22.75 22.0667 23.65 22.7C24.55 23.3333 25.6333 23.65 26.9 23.65C28.1667 23.65 29.25 23.3333 30.15 22.7C31.05 22.0667 32.2667 21.75 33.8 21.75C35.3333 21.75 36.45 22.0417 37.15 22.625C37.85 23.2083 38.8 23.55 40 23.65V26.65C38.8333 26.55 37.825 26.175 36.975 25.525C36.125 24.875 35.0667 24.55 33.8 24.55C32.5333 24.55 31.45 24.9 30.55 25.6C29.65 26.3 28.5 26.65 27.1 26.65C25.7 26.65 24.4833 26.3 23.45 25.6C22.4167 24.9 21.2667 24.55 20 24.55C18.7333 24.55 17.6583 24.9 16.775 25.6C15.8917 26.3 14.75 26.65 13.35 26.65C11.95 26.65 10.7333 26.3 9.7 25.6C8.66667 24.9 7.51667 24.55 6.25 24.55C4.98333 24.55 3.91667 24.875 3.05 25.525C2.18333 26.175 1.16667 26.55 0 26.65ZM10.4 16.25L17.15 9.5L14.45 6.8C13.3167 5.66667 12.1667 4.90833 11 4.525C9.83333 4.14167 8.35 3.95 6.55 3.95V0C8.95 0 10.925 0.3 12.475 0.9C14.025 1.5 15.5333 2.53333 17 4L29.65 16.65C29.2833 16.95 28.8583 17.1667 28.375 17.3C27.8917 17.4333 27.4 17.5 26.9 17.5C25.6333 17.5 24.5417 17.15 23.625 16.45C22.7083 15.75 21.5 15.4 20 15.4C18.5 15.4 17.3 15.75 16.4 16.45C15.5 17.15 14.4167 17.5 13.15 17.5C12.55 17.5 12.0083 17.3833 11.525 17.15C11.0417 16.9167 10.6667 16.6167 10.4 16.25ZM29.4 0.2C30.7333 0.2 31.8583 0.658333 32.775 1.575C33.6917 2.49167 34.15 3.61667 34.15 4.95C34.15 6.28333 33.6917 7.40833 32.775 8.325C31.8583 9.24167 30.7333 9.7 29.4 9.7C28.0667 9.7 26.9417 9.24167 26.025 8.325C25.1083 7.40833 24.65 6.28333 24.65 4.95C24.65 3.61667 25.1083 2.49167 26.025 1.575C26.9417 0.658333 28.0667 0.2 29.4 0.2Z" fill="#E0003E"/>
</svg>
