<svg width="32" height="43" viewBox="0 0 32 43" fill="none" xmlns="http://www.w3.org/2000/svg">
<path d="M20.75 43V31.05L15.35 26.1L13.25 35.5L0 32.75L0.55 29.95L10.5 31.95L14.15 13.5L9.15 15.85V22.55H6.15V13.8L14.35 10.35C15.4167 9.88333 16.175 9.59167 16.625 9.475C17.075 9.35833 17.5333 9.3 18 9.3C18.6667 9.3 19.2583 9.44167 19.775 9.725C20.2917 10.0083 20.7333 10.4333 21.1 11L23.2 14.35C24.0667 15.75 25.25 16.9667 26.75 18C28.25 19.0333 30 19.55 32 19.55V22.55C29.7667 22.55 27.775 22.0333 26.025 21C24.275 19.9667 22.65 18.4167 21.15 16.35L19.2 24.25L23.75 28.45V43H20.75ZM21 7.3C20 7.3 19.1417 6.94167 18.425 6.225C17.7083 5.50833 17.35 4.65 17.35 3.65C17.35 2.65 17.7083 1.79167 18.425 1.075C19.1417 0.358333 20 0 21 0C22 0 22.8583 0.358333 23.575 1.075C24.2917 1.79167 24.65 2.65 24.65 3.65C24.65 4.65 24.2917 5.50833 23.575 6.225C22.8583 6.94167 22 7.3 21 7.3Z" fill="#E0003E"/>
</svg>
