<svg width="48" height="41" viewBox="0 0 48 41" fill="none" xmlns="http://www.w3.org/2000/svg">
<path d="M27.3939 41L24 38.101L32.6061 30.75L12 13.149L3.39394 20.5L0 17.601L3.39394 14.5985L0 11.6995L5.09091 7.35101L1.69697 4.34848L5.09091 1.44949L8.60606 4.34848L13.697 0L17.0909 2.89899L20.6061 0L24 2.89899L15.3939 10.25L36 27.851L44.6061 20.5L48 23.399L44.6061 26.4015L48 29.3005L42.9091 33.649L46.303 36.6515L42.9091 39.5505L39.3939 36.6515L34.303 41L30.9091 38.101L27.3939 41Z" fill="#E0003E"/>
</svg>
