<svg width="48" height="41" viewBox="0 0 48 41" fill="none" xmlns="http://www.w3.org/2000/svg">
<path d="M44.7559 15.1542L41.3917 12.2824L43.194 10.6927L35.5044 4.1287L33.6421 5.66714L30.2178 2.7441L32.02 1.15438C32.9412 0.368062 34.0826 -0.0165482 35.4443 0.000545547C36.806 0.0176393 37.9474 0.419343 38.8686 1.20566L46.6183 7.82095C47.5394 8.60727 48 9.57307 48 10.7184C48 11.8636 47.5394 12.8294 46.6183 13.6157L44.7559 15.1542ZM15.9199 39.8205C14.9987 40.6068 13.8673 41 12.5257 41C11.184 41 10.0526 40.6068 9.13141 39.8205L1.38173 33.2052C0.460576 32.4189 0 31.4531 0 30.3078C0 29.1626 0.460576 28.1968 1.38173 27.4104L3.18398 25.872L6.60826 28.795L4.74593 30.3335L12.4956 36.9488L14.2979 35.359L17.7222 38.2821L15.9199 39.8205ZM39.7697 22.59L43.194 19.667L24.9912 4.1287L21.567 7.05173L39.7697 22.59ZM22.9487 36.9488L26.373 33.9745L8.23029 18.4875L4.74593 21.4105L22.9487 36.9488ZM22.5882 24.9489L29.1965 19.3593L25.3517 16.0773L18.8035 21.7182L22.5882 24.9489ZM26.373 39.8205C25.4518 40.6068 24.3104 41 22.9487 41C21.587 41 20.4456 40.6068 19.5244 39.8205L1.38173 24.3336C0.460576 23.5472 0 22.5729 0 21.4105C0 20.2481 0.460576 19.2738 1.38173 18.4875L4.80601 15.5644C5.72716 14.7781 6.85857 14.385 8.20025 14.385C9.54193 14.385 10.6733 14.7781 11.5945 15.5644L15.3792 18.7952L21.9875 13.1542L18.2028 9.97477C17.2816 9.18846 16.821 8.21411 16.821 7.05173C16.821 5.88936 17.2816 4.91501 18.2028 4.1287L21.627 1.20566C22.5482 0.419343 23.6796 0.0261862 25.0213 0.0261862C26.363 0.0261862 27.4944 0.419343 28.4155 1.20566L46.6183 16.7439C47.5394 17.5302 48 18.496 48 19.6413C48 20.7866 47.5394 21.7524 46.6183 22.5387L43.194 25.4617C42.2728 26.2481 41.1314 26.6412 39.7697 26.6412C38.408 26.6412 37.2666 26.2481 36.3454 25.4617L32.6208 22.231L26.0125 27.872L29.7972 31.1027C30.7184 31.889 31.179 32.8548 31.179 34.0001C31.179 35.1454 30.7184 36.1112 29.7972 36.8975L26.373 39.8205Z" fill="#E0003E"/>
</svg>
