<svg width="48" height="41" viewBox="0 0 48 41" fill="none" xmlns="http://www.w3.org/2000/svg">
<path d="M24 41L22.9091 18.2222L15.2727 15.9444H0V11.3889H13.0909L28.3636 0L31.2 3.47361L22.1455 10.25H28.3636L45.3818 0L48 3.18889L29.4545 18.2222L28.3636 41H24ZM10.9091 9.11111C9.70909 9.11111 8.68182 8.66505 7.82727 7.77292C6.97273 6.88079 6.54545 5.80833 6.54545 4.55556C6.54545 3.30278 6.97273 2.23032 7.82727 1.33819C8.68182 0.446065 9.70909 0 10.9091 0C12.1091 0 13.1364 0.446065 13.9909 1.33819C14.8455 2.23032 15.2727 3.30278 15.2727 4.55556C15.2727 5.80833 14.8455 6.88079 13.9909 7.77292C13.1364 8.66505 12.1091 9.11111 10.9091 9.11111Z" fill="#E0003E"/>
</svg>
